<?xml version="1.0" encoding="UTF-8" standalone="no"?>
<!-- Created with Inkscape (http://www.inkscape.org/) -->

<svg
   width="154.19405mm"
   height="146.11623mm"
   viewBox="0 0 154.19405 146.11623"
   version="1.1"
   id="svg1"
   xml:space="preserve"
   inkscape:version="1.4.1 (93de688d07, 2025-03-30)"
   sodipodi:docname="logo_v2.svg"
   inkscape:export-filename="logo_v2.png"
   inkscape:export-xdpi="96"
   inkscape:export-ydpi="96"
   xmlns:inkscape="http://www.inkscape.org/namespaces/inkscape"
   xmlns:sodipodi="http://sodipodi.sourceforge.net/DTD/sodipodi-0.dtd"
   xmlns="http://www.w3.org/2000/svg"
   xmlns:svg="http://www.w3.org/2000/svg"><sodipodi:namedview
     id="namedview1"
     pagecolor="#ffffff"
     bordercolor="#000000"
     borderopacity="0.25"
     inkscape:showpageshadow="2"
     inkscape:pageopacity="0.0"
     inkscape:pagecheckerboard="0"
     inkscape:deskcolor="#d1d1d1"
     inkscape:document-units="mm"
     inkscape:zoom="1.0324986"
     inkscape:cx="511.38084"
     inkscape:cy="195.15765"
     inkscape:window-width="1920"
     inkscape:window-height="1008"
     inkscape:window-x="0"
     inkscape:window-y="0"
     inkscape:window-maximized="1"
     inkscape:current-layer="layer1" /><defs
     id="defs1"><inkscape:path-effect
       effect="taper_stroke"
       start_shape="center | center"
       end_shape="center | center"
       id="path-effect50"
       is_visible="true"
       lpeversion="1"
       stroke_width="1.2"
       subpath="1"
       attach_start="0"
       end_offset="0.74163153"
       start_smoothing="0.5"
       end_smoothing="0.5"
       jointype="extrapolated"
       miter_limit="100" /><inkscape:path-effect
       effect="taper_stroke"
       start_shape="center | center"
       end_shape="center | center"
       id="path-effect49"
       is_visible="true"
       lpeversion="1"
       stroke_width="1.2"
       subpath="1"
       attach_start="0"
       end_offset="0.99113161"
       start_smoothing="0.5"
       end_smoothing="0.5"
       jointype="extrapolated"
       miter_limit="100" /><inkscape:path-effect
       effect="taper_stroke"
       start_shape="center | center"
       end_shape="center | center"
       id="path-effect47"
       is_visible="true"
       lpeversion="1"
       stroke_width="1"
       subpath="1"
       attach_start="0.2"
       end_offset="0.53354841"
       start_smoothing="0.5"
       end_smoothing="0.5"
       jointype="extrapolated"
       miter_limit="100" /><inkscape:path-effect
       effect="taper_stroke"
       start_shape="center | center"
       end_shape="center | center"
       id="path-effect46"
       is_visible="true"
       lpeversion="1"
       stroke_width="1.2"
       subpath="1"
       attach_start="0"
       end_offset="0.28527002"
       start_smoothing="0.5"
       end_smoothing="0.5"
       jointype="extrapolated"
       miter_limit="100" /><inkscape:path-effect
       effect="taper_stroke"
       start_shape="center | center"
       end_shape="center | center"
       id="path-effect44"
       is_visible="true"
       lpeversion="1"
       stroke_width="1"
       subpath="1"
       attach_start="0.28606427"
       end_offset="0.15283328"
       start_smoothing="0.5"
       end_smoothing="0.5"
       jointype="extrapolated"
       miter_limit="100" /><inkscape:path-effect
       effect="taper_stroke"
       start_shape="center | center"
       end_shape="center | center"
       id="path-effect43"
       is_visible="true"
       lpeversion="1"
       stroke_width="0.9"
       subpath="1"
       attach_start="0.16486311"
       end_offset="0.32303245"
       start_smoothing="0.5"
       end_smoothing="0.5"
       jointype="extrapolated"
       miter_limit="100" /><inkscape:path-effect
       effect="taper_stroke"
       start_shape="center | center"
       end_shape="center | center"
       id="path-effect42"
       is_visible="true"
       lpeversion="1"
       stroke_width="1.3"
       subpath="1"
       attach_start="0.49366014"
       end_offset="0.2"
       start_smoothing="0.5"
       end_smoothing="0.5"
       jointype="extrapolated"
       miter_limit="100" /><inkscape:path-effect
       effect="taper_stroke"
       start_shape="center | center"
       end_shape="center | center"
       id="path-effect41"
       is_visible="true"
       lpeversion="1"
       stroke_width="1.3"
       subpath="1"
       attach_start="0.78341953"
       end_offset="0.23887063"
       start_smoothing="0.8"
       end_smoothing="0.5"
       jointype="extrapolated"
       miter_limit="100" /><inkscape:path-effect
       effect="taper_stroke"
       start_shape="center | center"
       end_shape="center | center"
       id="path-effect43-9"
       is_visible="true"
       lpeversion="1"
       stroke_width="0.9"
       subpath="1"
       attach_start="0.30757109"
       end_offset="0.32303245"
       start_smoothing="0.5"
       end_smoothing="0.5"
       jointype="extrapolated"
       miter_limit="100" /><inkscape:path-effect
       effect="taper_stroke"
       start_shape="center | center"
       end_shape="center | center"
       id="path-effect46-9"
       is_visible="true"
       lpeversion="1"
       stroke_width="1.3"
       subpath="1"
       attach_start="0"
       end_offset="0.28527002"
       start_smoothing="0.5"
       end_smoothing="0.5"
       jointype="extrapolated"
       miter_limit="100" /></defs><g
     inkscape:label="Layer 1"
     inkscape:groupmode="layer"
     id="layer1"
     transform="translate(-23.710548,-12.918529)"><path
       d="m 175.51646,41.21824 c -14.31856,-0.483829 -25.02556,4.286833 -35.08294,9.122307 -10.20623,4.907034 -19.76047,9.919324 -31.52241,9.202996 a 0.87686053,0.902872 0 0 1 -0.16472,-0.0269 L 75.13105,83.025284 c 18.550489,10.200364 33.03764,6.304814 48.1283,0.241519 13.42548,-5.394245 27.24142,-12.578447 44.24951,-12.796698 2.276,-0.0292 4.60994,0.06524 7.00699,0.306291 z"
       style="baseline-shift:baseline;display:inline;overflow:visible;vector-effect:none;fill:#b57640;fill-opacity:1;stroke-width:1.04678;stroke-linecap:round;stroke-linejoin:round;paint-order:markers fill stroke;enable-background:accumulate;stop-color:#000000"
       id="path40-8" /><path
       d="m 172.8721,112.37706 c -27.85051,-12.3669 -45.80188,-2.12152 -64.80097,5.67154 -9.71335,3.98424 -19.682625,7.32973 -31.21622,6.51593 -11.15932,-0.78742 -23.73075,-5.47462 -38.90194,-17.0595 l -12.27525,10.13454 145.77366,41.30291 z"
       style="baseline-shift:baseline;display:inline;overflow:visible;vector-effect:none;fill:#3d4a67;fill-opacity:1;stroke-width:1.03905;stroke-linecap:round;stroke-linejoin:round;paint-order:markers fill stroke;enable-background:accumulate;stop-color:#000000"
       id="path29-2"
       sodipodi:nodetypes="csscccc" /><path
       d="m 174.6577,71.416142 c -19.34224,-2.213877 -34.43801,5.873039 -49.51775,11.919592 -15.1323,6.067632 -30.3559,9.984288 -49.24012,-1.241749 L 39.09877,107.96062 c 14.64949,11.18898 26.70289,15.69744 37.39179,16.56239 11.18458,0.90507 20.92983,-2.18478 30.64933,-5.99461 18.87712,-7.39946 37.72454,-17.50809 65.74781,-5.12153 z"
       style="baseline-shift:baseline;display:inline;overflow:visible;vector-effect:none;fill:#567545;fill-opacity:1;stroke-width:1.03565;stroke-linecap:round;stroke-linejoin:round;paint-order:markers fill stroke;enable-background:accumulate;stop-color:#000000"
       id="path34-2" /><path
       d="m 176.68423,14.028871 -66.6396,45.817735 c 10.46539,-0.0097 19.31565,-4.515406 29.07993,-9.13073 10.29602,-4.866661 21.5903,-9.817285 36.61699,-9.317946 z"
       style="baseline-shift:baseline;display:inline;overflow:visible;vector-effect:none;fill:#903532;fill-opacity:1;stroke-width:1.05907;stroke-linecap:round;stroke-linejoin:round;paint-order:markers fill stroke;enable-background:accumulate;stop-color:#000000"
       id="path36" /><g
       id="g3"
       transform="translate(1.36684,-50.195125)"
       style="fill:none;fill-opacity:1"><path
         style="fill:none;fill-opacity:1;stroke:#333333;stroke-width:1.71886;stroke-linecap:round;stroke-linejoin:round;stroke-dasharray:none;paint-order:markers fill stroke"
         d="M 175.67833,63.973004 23.203022,167.53451 170.64564,208.37048 Z"
         id="path1" /><path
         style="fill:none;fill-opacity:1;stroke:#333333;stroke-width:1.7;stroke-linecap:round;stroke-linejoin:round;stroke-dasharray:none;paint-order:markers fill stroke"
         d="m 109.29292,109.42105 c 22.28156,1.31789 36.38668,-18.469685 65.16942,-17.22862"
         id="path2"
         sodipodi:nodetypes="cc" /><path
         style="fill:none;fill-opacity:1;stroke:#333333;stroke-width:1.7;stroke-linecap:round;stroke-linejoin:round;stroke-dasharray:none;paint-order:markers fill stroke"
         d="M 75.177124,132.62546 C 112.49828,153.33175 133.9274,117.59858 173.21972,121.73884"
         id="path2-2"
         sodipodi:nodetypes="cc" /><path
         style="fill:none;fill-opacity:1;stroke:#333333;stroke-width:1.7;stroke-linecap:round;stroke-linejoin:round;stroke-dasharray:none;paint-order:markers fill stroke"
         d="m 172.13993,164.34833 c -56.72449,-24.85132 -73.083971,38.08218 -134.269147,-6.342"
         id="path3"
         sodipodi:nodetypes="cc" /></g><path
       style="fill:#333333;fill-opacity:1;fill-rule:nonzero;stroke:none;stroke-width:1.3;stroke-linecap:round;stroke-linejoin:round;stroke-dasharray:none;paint-order:markers fill stroke"
       d="m 106.55942,231.34299 c -1.3134,1.4254 -1.57297,3.15372 -1.28722,4.40128 0,0 0,0 0,0 0.21269,0.89816 0.79242,1.50082 1.35031,1.80454 0.97267,0.49079 1.91007,0.32756 2.22529,0.26142 0.42306,-0.0888 0.57004,-0.17466 0.57004,-0.17466 0,0 -0.167,-0.0323 -0.57396,-0.10991 -0.27938,-0.0532 -1.20211,-0.20937 -1.76945,-0.68908 -0.33219,-0.26116 -0.63316,-0.72138 -0.71153,-1.30651 0,0 0,0 0,0 -0.13949,-0.91727 0.16897,-2.17446 1.16359,-3.3183 0.31058,-0.32471 0.54865,-0.71913 0.79726,-1.00551 0.24654,-0.284 0.49808,-0.47027 0.49808,-0.47027 0,0 -0.2778,-0.14777 -0.7554,-0.12115 -0.48765,0.0272 -1.0933,0.24551 -1.50701,0.72815 z"
       id="path41"
       sodipodi:nodetypes="cc"
       inkscape:path-effect="#path-effect41"
       inkscape:original-d="m 109.41784,237.63557 c -5.87045,0.56031 -3.61388,-6.52622 -0.59601,-6.89958"
       transform="translate(-6.8579033,-118.46171)" /><path
       style="fill:none;fill-opacity:1;fill-rule:nonzero;stroke:#333333;stroke-width:1.3;stroke-linecap:round;stroke-linejoin:round;stroke-dasharray:none;paint-order:markers fill stroke"
       d="m 98.97729,104.66335 c 0.26736,2.47923 -0.53935,4.87681 2.62739,7.02149 1.84334,1.53878 4.19829,2.67388 7.09012,2.61414 2.57844,-0.87954 5.07006,-2.62764 7.04348,-5.24152 0.62489,-1.40632 2.08711,-6.38578 -1.1325,-9.377105 -0.68281,-2.94603 -1.40326,-6.52684 -3.2163,-6.7497 -1.53729,1.09999 -2.71114,2.98795 -3.8958,5.0283 -1.2835,-0.2902 -2.567,0.4082 -3.8505,1.3137 -2.1212,-1.15607 -4.3578,-2.00443 -6.84029,-2.19705 -0.85844,2.52925 1.58966,4.877305 2.1744,7.587745 z"
       id="path42"
       sodipodi:nodetypes="cccccccccc" /><path
       style="fill:#333333;fill-opacity:1;fill-rule:nonzero;stroke:none;stroke-width:0.899999;stroke-linecap:round;stroke-linejoin:round;stroke-dasharray:none;paint-order:markers fill stroke"
       d="m 110.1039,226.61394 c -0.4923,-0.10193 -0.95512,0.33223 -0.95512,0.33223 0,0 0.40767,0.47434 0.77354,0.54926 0.84744,0.17457 1.74477,0.57071 2.37704,1.06569 0.23405,0.18988 0.62327,0.39987 0.82564,0.52746 0.23871,0.15051 0.41215,0.29202 0.41215,0.29202 0,0 0.10429,-0.93001 -0.683,-1.52814 -0.76296,-0.5973 -1.77507,-1.03764 -2.75025,-1.23852 z"
       id="path43"
       inkscape:path-effect="#path-effect43"
       inkscape:original-d="m 109.14878,226.94617 c 1.68922,0.0644 3.84695,1.10713 4.38837,2.43443"
       sodipodi:nodetypes="cc"
       transform="translate(-7.38707,-118.46171)" /><path
       style="fill:#333333;fill-opacity:1;fill-rule:nonzero;stroke:none;stroke-width:0.899999;stroke-linecap:round;stroke-linejoin:round;stroke-dasharray:none;paint-order:markers fill stroke"
       d="m 111.13774,226.75228 c -0.29416,-0.20891 -0.62836,-0.28079 -0.86319,-0.38699 -0.22995,-0.10399 -0.38904,-0.25195 -0.38904,-0.25195 0,0 -0.0645,0.20983 0.0459,0.53168 0.1144,0.33365 0.38216,0.68411 0.73274,0.87257 0.61958,0.38342 1.32113,0.71295 1.74842,1.03105 0.18983,0.18925 0.46494,0.27532 0.6253,0.40891 0.157,0.13077 0.21101,0.32695 0.21101,0.32695 0,0 0.1746,-0.1191 0.19957,-0.45072 0.0252,-0.33527 -0.13082,-0.78515 -0.49845,-1.00706 -0.49681,-0.36985 -1.31841,-0.76883 -1.81224,-1.07444 z"
       id="path43-6"
       inkscape:path-effect="#path-effect43-9"
       inkscape:original-d="m 109.88551,226.11334 c 0.40795,1.28161 3.75086,1.84386 3.36335,3.17116"
       sodipodi:nodetypes="cc"
       transform="matrix(-1,0,0,1,222.15482,-119.90709)" /><path
       style="fill:#333333;fill-opacity:1;fill-rule:nonzero;stroke:none;stroke-width:0.899999;stroke-linecap:round;stroke-linejoin:round;stroke-dasharray:none;paint-order:markers fill stroke"
       d="m 116.41195,231.71243 c 0.32071,-0.0367 0.58465,-0.57007 0.58465,-0.57007 0,0 -0.37749,-0.46011 -0.6982,-0.42346 l -1.25813,0.14379 c -0.17134,0.0196 -0.28591,0.53593 -0.28591,0.53593 0,0 0.22812,0.47718 0.39946,0.4576 z"
       id="path44"
       inkscape:path-effect="#path-effect44"
       inkscape:original-d="m 116.9966,231.14236 -2.24224,0.25626"
       sodipodi:nodetypes="cc"
       transform="translate(-7.38707,-118.46171)" /><path
       style="fill:none;fill-opacity:1;stroke:#333333;stroke-width:1.4;stroke-linecap:round;stroke-linejoin:round;stroke-dasharray:none;paint-order:markers fill stroke"
       d="m 114.62253,98.106135 c 6.12117,-0.45274 8.5969,-2.58167 15.30807,-6.13081 3.36643,-1.78031 13.90873,-2.72191 18.53811,0.34748 6.01559,3.98849 11.08065,8.554755 8.24376,16.353825"
       id="path45"
       sodipodi:nodetypes="cssc" /><path
       style="fill:#333333;fill-opacity:1;fill-rule:nonzero;stroke:none;stroke-width:1.6;stroke-linecap:round;stroke-linejoin:round;stroke-dasharray:none;paint-order:markers fill stroke"
       d="m 137.98031,228.2543 c -0.89627,-1.01407 -1.28064,-2.01049 -1.33824,-2.99822 -0.0576,-0.98774 0.22231,-1.98561 0.75135,-2.95484 1.05807,-1.93846 3.12445,-3.71583 5.09554,-4.80305 0.97903,-0.5044 1.88126,-1.12198 2.6129,-1.41057 0.72486,-0.28592 1.30768,-0.30116 1.30768,-0.30116 0,0 -0.51174,-0.28672 -1.41311,-0.28234 -0.96184,0.005 -2.04941,0.33276 -3.08704,0.94331 -3.37678,1.86257 -7.16553,5.6418 -6.36806,9.6366 0.20282,1.01599 0.69942,2.01409 1.53984,2.96496 z"
       id="path46"
       inkscape:path-effect="#path-effect46"
       inkscape:original-d="m 137.53074,228.65165 c -5.4362,-6.15071 5.43311,-13.51466 8.8788,-12.86519"
       sodipodi:nodetypes="cc"
       transform="translate(-7.38707,-118.46171)" /><path
       style="fill:#333333;fill-opacity:1;fill-rule:nonzero;stroke:none;stroke-width:1.6;stroke-linecap:round;stroke-linejoin:round;stroke-dasharray:none;paint-order:markers fill stroke"
       d="m 122.60771,227.78654 c -0.51938,0.30243 -0.43366,1.00101 -0.43366,1.00101 0,0 0.67417,0.0282 0.94932,-0.14422 0.34475,-0.20749 0.80652,-0.4036 1.33562,-0.55802 1.73221,-0.50478 3.69466,-0.79266 3.69466,-0.79266 0,0 -1.89136,-0.77618 -3.97482,-0.16729 -0.59109,0.17251 -1.13302,0.39751 -1.57112,0.66118 z"
       id="path47"
       inkscape:path-effect="#path-effect47"
       inkscape:original-d="m 122.17405,228.78755 c 0.80127,-1.00878 3.49966,-1.80507 5.9796,-1.4949"
       sodipodi:nodetypes="cc"
       transform="translate(-6.66227,-118.8241)" /><path
       style="fill:#333333;fill-opacity:1;fill-rule:nonzero;stroke:none;stroke-width:1.2;stroke-linecap:round;stroke-linejoin:round;stroke-dasharray:none;paint-order:markers fill stroke"
       d="m -38.596329,23.864463 c 3.038609,-0.463127 5.445042,0.363269 7.318205,1.827912 2.791764,2.177205 4.318863,5.421493 4.724703,8.335015 -1e-6,0 -1e-6,1e-6 -1e-6,1e-6 0.184435,1.449702 0.128456,2.575047 -0.36884,3.502817 -0.24221,0.456151 -0.572384,0.773904 -0.921747,0.952695 0,0 0,0 0,0 -0.859895,0.448387 -1.504265,0.208225 -1.504265,0.208225 0,0 0.596497,0.339385 1.585157,-0.0236 0,0 1e-6,0 1e-6,0 0.405333,-0.152057 0.827809,-0.461589 1.154183,-0.948323 0.637163,-0.954446 0.878989,-2.227873 0.781245,-3.760432 0,0 0,-1e-6 0,-1e-6 -0.164045,-3.114336 -1.591105,-6.7663 -4.711276,-9.21173 -2.107771,-1.648084 -4.877156,-2.58115 -8.238174,-2.068885 z"
       id="path48"
       sodipodi:nodetypes="cc"
       inkscape:path-effect="#path-effect50"
       inkscape:original-d="m -38.686737,23.271313 c 12.359386,-1.883746 15.809593,16.73519 9.338463,15.419815"
       transform="translate(188.36516,69.759225)" /></g></svg>
